<svg xmlns="http://www.w3.org/2000/svg" viewBox="0 0 510.24 510.24"><defs><style>.cls-1{fill:#f19ec2;}.cls-2{fill:#fff;}.cls-3{fill:#c27a9b;}.cls-4{fill:#3e3a39;}</style></defs><title>アートボード 1</title><g id="塗り"><path class="cls-1" d="M341.75,167.63a7.87,7.87,0,0,0-.18-1,127.64,127.64,0,0,0-7.71-41.09,7.69,7.69,0,0,0-.69-1.41c-.71-2.87-1.48-5.72-2.35-8.55a8.19,8.19,0,0,0-1.21-2.46l-1.45-5.9a6.59,6.59,0,0,0-4.85-5.15c-.41-1-.82-1.91-1.24-2.86a6.38,6.38,0,0,0-4.8-3.49,92.45,92.45,0,0,0-8.19-10.56,7,7,0,0,0-5.92-2.12A49.28,49.28,0,0,0,279.56,69a45.29,45.29,0,0,0-10.2-1.38q-9.72-4.2-19.72-7.73a6.26,6.26,0,0,0-7.84,2.61c-18.14-5.76-37.13,2.88-53.66,10.76C170.48,81.66,153.4,94,145.55,112.52a10.25,10.25,0,0,0-.45,1.28,15.33,15.33,0,0,0-1.32,2.73,7,7,0,0,0-.45,3.25l-.08.12a61.36,61.36,0,0,0-7.24,17,25.15,25.15,0,0,0-5.57,15.71,46.77,46.77,0,0,0-2.47,5.49c-3.15,8.76-3.37,18.46-3,27.66a159.44,159.44,0,0,0,4,30.11,141.59,141.59,0,0,0,2,20.22,5.08,5.08,0,0,1,1,2.75,35,35,0,0,0,.65,4.38,61.86,61.86,0,0,0,2.65,7.27c2.72,3.76,5.4,7.55,7.83,11.52a4.78,4.78,0,0,1,.75,2.73,65.55,65.55,0,0,0,15.22,14c1.62,2,3.29,3.95,5,5.82a35.28,35.28,0,0,0,16.79,10.4c7.49,7.61,18.63,10.75,29.87,9.3,1.76-.23,3.49-.56,5.2-1a10.14,10.14,0,0,0,.57,2.73,34.37,34.37,0,0,1-.4,6.87l0,.06a6.85,6.85,0,0,0-2.65,3.16c-.09.18-.17.38-.25.57s0,.41,0,.63a3.91,3.91,0,0,1,0,.49A3.79,3.79,0,0,1,213,320c-.11.3-.22.59-.34.88,0,.22.07.43.13.64a7,7,0,0,0,3.89,4.63h0a4.25,4.25,0,0,0,.49.21l.18.06a9,9,0,0,0,4.64.33,106.35,106.35,0,0,1,18.14-1.67,6.89,6.89,0,0,0,5.53,2.47c6.28,0,8.48-6.35,6.58-10.79l-.07,0a4.21,4.21,0,0,1-2.25-2.89,6.63,6.63,0,0,0-2-1,6.89,6.89,0,0,0-5.74-2.8,8.22,8.22,0,0,0,.9-3c5.89-4.68,14.34-7.27,20.95-10.54a207.16,207.16,0,0,0,24.4-13.84c12.6-8.56,24-19.25,31.34-32.64.82-1,1.65-2,2.45-3a11.16,11.16,0,0,0,1.19-1.85,6.26,6.26,0,0,0,4-3.32,131.36,131.36,0,0,0,13.25-44.76,156.38,156.38,0,0,0,2.46-24.85A7,7,0,0,0,341.75,167.63Z"/><path class="cls-1" d="M343.2,167.24c-.84-4.42-.55-9.24-1.09-13.73a129.31,129.31,0,0,0-2.58-14.36,142.45,142.45,0,0,0-4.22-14c-1.31-3.7-2.17-7.59-3.57-11.29-1.27-3.35-1.61-8.35-4.32-10.93-1.16-1.11-2.25-1.4-3.27-2.68s-1-2.5-2.22-3.62c-.87-.81-1.69-.89-2.61-1.53-1.8-1.24-2.8-3-4.1-4.75-2-2.59-4.12-6-7.13-7.54C307,82.3,306,82.44,305,82a13.52,13.52,0,0,1-3.81-2.81,50.21,50.21,0,0,0-18.48-10.52c-3.7-1.14-7.34-1.39-11.12-2-5.35-.9-10.58-3.86-15.64-5.76-5.57-2.08-11.15-4.41-15.32,1.19l2.05-.55c-11.86-3.46-23.82-1.65-35.3,2.37a170,170,0,0,0-32.19,15.2c-9.56,5.84-18.41,13.15-24.89,22.37A73.44,73.44,0,0,0,143,115c-1.16,2.71-1.42,5.12-2.85,7.74a62.54,62.54,0,0,0-4.07,9.22c-1.61,4.65-4.47,8.64-6,13.31-1,3.31-1.16,6.67-2.4,9.94a61.72,61.72,0,0,0-2.7,8c-3,12.82-1.86,27,0,39.93,1,6.89,2.34,13.56,2.86,20.5a122.37,122.37,0,0,0,3.26,19.93c1.4,5.79,4.54,9.82,7.77,14.64,1.87,2.79,2.83,5.84,4.67,8.47a42.72,42.72,0,0,0,6.17,6.44c3.2,2.93,6.86,5.25,9.81,8.43a78.28,78.28,0,0,0,6.87,7.12c4.77,4,10.66,5.52,15.55,9.12,10.24,7.53,21.91,9.14,34.21,6.42l-1.7-.57c.48,3.46,1.17,6.67-.73,9.75-.72,1.16-1.64,2-2.06,3.38-.92,3-.63,6.34,1.68,8.66,6.73,6.76,18.43-1.64,26.35,1.2,3.21,1.15,5.18,2.67,8.85,1.45a8.39,8.39,0,0,0,5.48-5.82c1.82-6.71-5.13-12.61-11.3-13.2l.87,1.17c2.91-7.08,13.22-9.17,19.75-12.23a199.59,199.59,0,0,0,22.94-12.62c12.64-8.1,24.25-18.24,32.39-31,2-3,3.74-6.57,6.59-8.86a16.27,16.27,0,0,0,5.15-6.82,133,133,0,0,0,8.09-22.25,211.94,211.94,0,0,0,4.83-27.07c.57-4.45,1-8.93,1.16-13.41.14-3.33.41-6.17-1.48-9-.69-1-3.47,0-2.66,1.26,2.42,3.64,1.18,9.57.85,13.75-.36,4.48-1,8.9-1.65,13.34a190.91,190.91,0,0,1-4.45,23.12,128.63,128.63,0,0,1-4.56,13.34c-1.54,3.81-2.91,8.64-6.11,11.25-5.23,4.27-8,10.8-12.08,16.15-9.83,12.92-23.21,22.65-37.31,30.46-6.56,3.63-13.26,6.85-20.15,9.83a76.1,76.1,0,0,0-8.93,4.38c-3.37,2-3.69,2.56-5.13,6.06-.27.64.23,1.1.87,1.16,5.23.5,11.89,7.11,8.93,12.58q-2,3.79-6.81,2.48l-2.37-1.7a11,11,0,0,0-1.19-.39c-3.33-.89-8.44.33-11.82.73-6.32.74-14.72,2.77-13.78-6.3.27-2.59,1.17-2.67,2.33-5,.15-.29.41-.47.54-.8,1.2-3,.23-6.86-.18-9.87-.1-.72-1.25-.67-1.71-.57-6.53,1.45-13.21,1.77-19.7-.07a32.5,32.5,0,0,1-7.41-3.08c-2.41-1.38-4.25-3.72-6.58-5-2.1-1.2-4.84-1.63-7-2.78A35.78,35.78,0,0,1,168.7,287a59.63,59.63,0,0,1-6.46-6.74,38.38,38.38,0,0,0-6.26-5.45,64,64,0,0,1-7.42-6.83c-1.89-2-2.76-4.13-4.08-6.55-2.94-5.42-7.41-9.83-9.46-15.72-3.84-11-3.08-22.75-5.42-34a147,147,0,0,1-3.17-37.48,54.51,54.51,0,0,1,3.46-17.41,25.84,25.84,0,0,0,2.07-5.93,31.22,31.22,0,0,1,2.12-8.48c.93-2,2.44-3.71,3.4-5.68,1.38-2.82,1.9-6.28,3.2-9.21,1.14-2.58,2.87-4.93,3.95-7.5.77-1.82,1-4.12,1.85-6.09a65,65,0,0,1,19.38-25.71c9.26-7.59,20-13,30.83-17.87C210.59,64.12,225.74,59,241,63.43a2,2,0,0,0,2-.55c4.92-6.61,19.58,4.48,25.51,5.67,3.35.68,6.82.53,10.2,1.38a46.75,46.75,0,0,1,10.57,4.12,49.65,49.65,0,0,1,8.25,5.59c1.68,1.4,3.25,3.37,5.11,4.43a9.22,9.22,0,0,1,4.32,1,28.45,28.45,0,0,1,2.44,2.6c1.1,1.27,2.14,2.59,3.15,3.92s2.08,3.46,3.39,4.74c.49.48,1.1.24,1.68.65,2.72,1.93,2.93,3.78,4.84,6a5.32,5.32,0,0,1,3.27,2.3l1,2.29c.18.54.26,1.12.41,1.68,1.25,4.57,2.74,9,4.16,13.51,2.35,7.46,5,14.72,6.51,22.47,1.46,7.51,1.1,15.31,2.51,22.74C340.55,169.31,343.45,168.57,343.2,167.24Z"/><path class="cls-2" d="M294.73,92.1c1.95,1.38,4.84,2.69,6.45,5.32C318.65,123.18,324,151,320.62,179.91q-.35,3-.68,6-.49,2.91-1,5.76c-.17,1-.29,1.9-.5,2.83l-.63,2.79c-.2.92-.41,1.85-.61,2.77s-.39,1.84-.67,2.75c-.51,1.81-1,3.62-1.52,5.43l-.38,1.36-.46,1.34c-.31.89-.61,1.79-.92,2.69-1.11,3.62-2.7,7.13-4.13,10.79.77-2,1.65-4,2.47-6.07a23.54,23.54,0,0,0,1.05-3.1c.29-1.06.55-2.12.74-3.2s.42-2.15.55-3.21.26-2.13.38-3.18c.23-2.1.55-4.15.61-6.23s.26-4.14.32-6.23,0-4.21-.06-6.38c0-1-.07-2-.15-3s-.18-2.06-.26-3.12-.15-2.13-.29-3.21-.27-2.17-.41-3.27-.25-2.2-.34-3.3-.29-2.21-.39-3.31-.21-2.2-.27-3.29l-.07-1.65c0-.54-.08-1.08-.11-1.62-.08-1.37-.16-2.68-.24-3.95,0-.63-.08-1.25-.13-1.86s-.15-1.2-.22-1.78c-.33-2.32-.61-4.46-.95-6.37s-.82-3.61-1.18-5.1l-.52-2.09-.58-1.75c-1.43-4.24-2-5.18-1.28-2.68a12.51,12.51,0,0,0-1-2.29,16.42,16.42,0,0,0-1.34-1.95,28.26,28.26,0,0,1-2.76-4c-.72-1.57-1.48-3.07-2.05-4.62s-1.06-3.11-1.67-4.58a82.59,82.59,0,0,0-3.5-8.82,15.19,15.19,0,0,1-2.54-3.59c-.76-1.83-1.56-3.58-2.44-5.29a32.34,32.34,0,0,0-3.05-5,20.38,20.38,0,0,0-4.3-4.3,13.28,13.28,0,0,0-6.15-2.46,7.43,7.43,0,0,1,1.23-.23l.57-.06c-.43-.18-.8-.36-1.16-.48l-1.05-.31a17,17,0,0,0-2.39-.46,16.07,16.07,0,0,1,10.31-.18A34.08,34.08,0,0,1,294.73,92.1Z"/><path class="cls-3" d="M346.34,171.13a5.24,5.24,0,0,0,.19-2.84C339.64,134.67,331,99,302,77.42a4,4,0,0,0-4-.68,4.48,4.48,0,0,0-.56-.36C284.2,69.09,271.17,62.87,256,61.27c-15.63-1.64-31.36.56-47-.46a4.23,4.23,0,0,0-4.69,3.56,5.27,5.27,0,0,0-2.89.44c-55.27,25-86.8,85.21-79,144.89a122.49,122.49,0,0,0,5.51,24.45,5.06,5.06,0,0,1,4.13,4.66,37.33,37.33,0,0,0,1.69,8.32,65.68,65.68,0,0,0,6.58,9.61h0a4.74,4.74,0,0,0-.15.57c1,1.53,2,3.08,3,4.66a4.67,4.67,0,0,1,.72,3.1,105.87,105.87,0,0,0,68.7,42.65,5.51,5.51,0,0,0,1.62,0l.19.29a4,4,0,0,0-.06.92,56.27,56.27,0,0,1-.07,10c-2.82,2.83-.08,9.29,5.14,8.45a110.06,110.06,0,0,1,27.14-.83c6.4.57,6.37-9.44,0-10l-1.15-.09q-1.77-3.85-3.52-7.71a5.06,5.06,0,0,0,1.59-.06c5.09-.92,9.51-3.53,13.82-6.26s8.32-5.54,13.55-5.06a4.06,4.06,0,0,0,4.19-2.07,5.17,5.17,0,0,0,1.77-.79c16-11,34.35-22,44.52-39.09a5.87,5.87,0,0,0,.5-1.09,5.15,5.15,0,0,0,.64-.67c4.07-5.16,8.25-10.33,11.3-16.19s4.76-12.16,6.23-18.56c3.27-14.3,5.87-28.74,7.91-43.26A5.23,5.23,0,0,0,346.34,171.13Zm-15.23,41.38c-1.29,5.88-2.47,12-4.9,17.54-2.65,6.06-6.82,11.37-10.89,16.52a5.33,5.33,0,0,0-1,2.05,4.87,4.87,0,0,0-1.69,1.74c-8.73,14.71-24.52,24.41-38.52,33.87a2.35,2.35,0,0,0-1.71.67A12.18,12.18,0,0,1,271,286a10.61,10.61,0,0,0-3.22,1.37c-10.18.74-17.1,9.89-27.07,11.7a6.31,6.31,0,0,0-.72.18,162.16,162.16,0,0,1-22.48,0,4.41,4.41,0,0,0-2.36-1.1,97.62,97.62,0,0,1-35.06-12.81,135.26,135.26,0,0,1-21.63-20.14,2.07,2.07,0,0,0-.73-1.25c-.44-.36-.86-.74-1.29-1.11a134.3,134.3,0,0,1-8.05-10.86,5.33,5.33,0,0,0-1.11-2.25c-11.65-14.06-15.25-34.3-16.07-52.06a134.89,134.89,0,0,1,8.25-53.13c11.72-31.52,36.34-57.24,66.9-71a4.5,4.5,0,0,0,1.94-1.56l6.61-.84c12.46.26,24.92-.93,37.37-.09,14.8,1,27.29,7,40.08,14.06a4.86,4.86,0,0,0,3,.62,4.94,4.94,0,0,0,3.14,2,2.8,2.8,0,0,0,.5,0c24.68,19.85,31.69,53.18,37.74,82.71a2.51,2.51,0,0,0-.09.62,80.68,80.68,0,0,0,.58,8.23C335.55,190.37,333.53,201.48,331.11,212.51Z"/><path class="cls-1" d="M274.79,269.25a27.1,27.1,0,0,1-2.4,5.26l-.05,0c-1.27.92-2.55,1.82-3.82,2.73a2.67,2.67,0,0,0-3.66-.27l-1.79,1.47a2.12,2.12,0,0,0-3.09.28l-.27.3c-.56-1.67-2.61-2.77-3.95-1l-12.65,16.34a5.36,5.36,0,0,1-2.28.29,2,2,0,0,0-2.37,2c-.36.15-.64.32-.69.47l-.41,1.22c-.3-.31-.58-.63-.89-.93a2.6,2.6,0,0,0-3.19-.27c0-.73.05-1.47.11-2.21,0-.35-2.79,0-2.9.78-.19,1.44-.46,2.85-.76,4.24,0-.53,0-1.06,0-1.59,0-.08-.07-.13-.17-.16,0-.81-.1-1.63-.2-2.45a2.79,2.79,0,0,0-3.8-2.18c.25-1.22.51-2.44.76-3.66.12-.57-2.71-.15-2.85.53l-1.38,6.63c-1.26-.41-2.49-.85-3.71-1.32a11.77,11.77,0,0,0-4-4.9,2,2,0,0,0-3,.47l-6.4-4.68-3.71-3.37a2.52,2.52,0,0,0-3.77.41l-7.73-4.61c-2.78-1.65-5.29,2.67-2.53,4.32l3.6,2.14a2,2,0,0,0,.83,1.87A89.36,89.36,0,0,0,212.11,300l6.67,6.08a2.54,2.54,0,0,0,1.34.65c-.56,3.65-1,8.39-3.85,10.55-.27.2-.11.32.1.39-1.42.35-1.77,2.32.07,2.18l3.58-.27v0c-.11.45,1.8.26,2.56-.21l23-1.72c1.67-.13,2.2-2.38.23-2.24l-1.14.09c.86-.17,1.72-.31,2.58-.5.08,0,2-.5,1.73-.88A68.84,68.84,0,0,1,243.48,304c1.42-1.44,2.81-2.91,4.21-4.37,2.42-1.47,4.78-3,7.08-4.63,10.9-5.24,20.78-12.24,24.85-24.39C280.64,267.52,275.81,266.2,274.79,269.25Zm-33.93,37.5c.06-.08.09-.18.15-.27l.25-.24c.53,1.14,1.1,2.27,1.7,3.38C242.32,308.64,241.55,307.66,240.86,306.75Zm3.25,5.17a6.75,6.75,0,0,0-.28-.73c.63,1.08,1.28,2.15,2,3.21-.84.17-1.69.34-2.53.49C244.59,314.1,244.64,313.83,244.11,311.92Z"/></g><g id="線"><path class="cls-4" d="M342.56,139.41c-4.05-15.87-7.82-31.76-18.69-44.54-10.57-12.43-25.12-21.39-40.06-27.61-31-12.91-67.24-13.79-97.54,1.48a95.78,95.78,0,0,0-36.65,32.09c-9.77,14.67-18.17,30.1-22.9,47.17-9.18,33.12-7.14,70.4,7.53,101.65a105.63,105.63,0,0,0,29.83,38.26,86,86,0,0,0,21.42,12.55c10.08,4,21.21,6.16,31.65,9.09l-1.75-3.07c-2.93,7.28-3.9,14.16-4.57,21.86a2.51,2.51,0,0,0,2.5,2.5c14.3-.57,28.59-1.35,42.89-1.83a2.52,2.52,0,0,0,2.16-3.76q-5.64-9.72-11.93-19l-1.5,3.67,15.23-6.38c6.81-2.85,12.88-6.49,19.21-10.27a157.52,157.52,0,0,0,30.54-23.34c20.74-20.65,33.91-47.14,37-76.29,1.94-18.17.05-36.53-4.39-54.2-.78-3.12-5.6-1.8-4.82,1.33,9.33,37.16,5.67,76.75-16.85,108.56a136.84,136.84,0,0,1-38.24,36.09c-6.27,4-12.73,8.31-19.44,11.47-6.37,3-13.08,5.48-19.59,8.21-1.37.57-2.5,2.19-1.49,3.67q6.3,9.3,11.93,19l2.16-3.77c-14.3.48-28.59,1.26-42.89,1.83l2.5,2.5c.63-7.26,1.64-13.7,4.39-20.54a2.51,2.51,0,0,0-1.74-3.07c-15.83-4.44-32.13-7.59-46-16.85a95.49,95.49,0,0,1-28.41-30.41c-16.79-28-21.18-62.88-15.57-94.7a131.18,131.18,0,0,1,16.67-45.31c8.66-14.31,17.61-27.5,31.55-37.22,26.88-18.75,61.31-22,92.34-12.91C286,72.27,302.6,80.75,315.31,93.06c13.57,13.16,17.91,30,22.43,47.68C338.54,143.86,343.36,142.54,342.56,139.41Z"/><path class="cls-4" d="M233.21,327.75c-1,13.37-2,27.54,3.41,40.18C242.22,381.12,255,388.84,262,401a47.67,47.67,0,0,1,6.39,22.44c.21,7.94-1.47,15.74-2.3,23.61-1.26,12,.07,25.46,10,33.58,2.48,2,6-1.5,3.54-3.54-11.84-9.65-9.12-26.07-7.34-39.36s1.23-25.86-5.18-37.8c-6.19-11.53-17.63-18.88-24-30.17-7.18-12.66-5.93-28.08-4.86-42,.25-3.21-4.75-3.19-5,0Z"/></g></svg>